<svg width="142" height="44" viewBox="0 0 142 44" fill="none" xmlns="http://www.w3.org/2000/svg">
<g clip-path="url(#clip0_5843_5778)">
<path fill-rule="evenodd" clip-rule="evenodd" d="M25.4208 0L25.4209 10.4683L25.4281 10.5627C25.4473 10.6853 25.5049 10.795 25.601 10.8918C25.6778 10.9693 25.7628 11.0219 25.856 11.0498L25.9275 11.0661L26.0211 11.0733H29.3105L29.4128 11.0666C29.5447 11.0485 29.6587 10.9943 29.7547 10.9039C29.8347 10.8286 29.8881 10.739 29.9148 10.635L29.9298 10.5544L29.9348 10.4683L29.9357 0.0111219L30.2756 0.0186282L30.9234 0.0395085L31.5305 0.0681727L32.0993 0.104573C32.5581 0.138117 32.9794 0.179669 33.3696 0.229106L33.3657 0.282675L33.3502 0.679733L33.3375 1.32933L33.3306 2.40233L33.331 3.09943L33.3373 3.94992L33.3463 4.45707L33.3544 4.73293C33.4344 6.8948 34.1307 8.53233 35.4433 9.64553C36.7558 10.7587 38.5486 11.3153 40.8215 11.3153C41.8042 11.3153 42.6963 11.2113 43.498 11.0032C43.522 11.2541 43.5432 11.5169 43.5618 11.793L43.5952 12.3631L43.6213 12.9709C43.6251 13.0754 43.6285 13.1816 43.6316 13.2895L43.6466 13.9578C43.6503 14.1876 43.6528 14.4246 43.6541 14.6692L43.6556 15.4646C42.8083 15.2115 41.8636 15.085 40.8215 15.085C38.5806 15.085 36.7918 15.6618 35.4553 16.8153C34.1744 17.9208 33.4779 19.4744 33.3657 21.4763L33.3502 21.8734L33.3375 22.523L33.3306 23.596L33.331 24.2931L33.3373 25.1436L33.3463 25.6507L33.3544 25.9266C33.4344 28.0884 34.1307 29.726 35.4433 30.8392C36.7558 31.9524 38.5486 32.509 40.8215 32.509C41.8311 32.509 42.7452 32.3992 43.5638 32.1795C43.3978 34.6788 43.0085 36.0987 42.4143 37.3702L42.2615 37.6855L42.1002 37.9978C41.0856 39.9099 39.5967 41.4105 37.6996 42.4331C36.8935 42.8677 36.0901 43.2159 35.0346 43.4727L35.0349 36.9637L35.0303 36.8776C35.0147 36.7387 34.9602 36.6222 34.8669 36.5281C34.7922 36.4528 34.7033 36.4026 34.6001 36.3775L34.5201 36.3634L34.4347 36.3587H27.976L27.6617 36.3629C26.4183 36.3967 25.3386 36.6332 24.4225 37.0726C23.4301 37.5485 22.6778 38.214 22.1656 39.0691C21.6533 39.9241 21.3972 40.9002 21.3972 41.9973C21.3972 42.7235 21.5048 43.3914 21.72 44.0009L14.9238 44.0003C14.6922 44.0003 14.4672 43.9992 14.2484 43.9971L13.6108 43.9873L13.0092 43.9712C12.9118 43.968 12.8159 43.9645 12.7214 43.9607L12.1704 43.935L11.651 43.9029C11.4829 43.8911 11.3198 43.8783 11.1614 43.8644L10.6998 43.8197C10.1769 43.764 9.70757 43.6954 9.27915 43.6144L8.92166 43.5419L8.58243 43.4633C8.4722 43.4361 8.36471 43.4079 8.25968 43.3786L7.95166 43.288C7.80103 43.2412 7.65525 43.1921 7.51333 43.1408L7.23434 43.0353L7.24198 42.7959C7.30601 40.7631 8.2424 39.7467 10.0512 39.7467C10.8035 39.7467 11.4077 39.904 11.8639 40.2186L12.1011 40.3838C12.4681 40.6452 12.8751 40.975 13.1804 41.4721L13.2782 41.6441C13.5486 42.1598 13.8083 42.227 14.0162 42.2245L14.1083 42.2198L14.1921 42.2134C14.2053 42.2127 14.2182 42.2123 14.2306 42.2123C14.2578 42.2123 14.3032 42.1993 14.3668 42.1735L14.476 42.125L14.6911 42.0159L14.9677 41.8631L15.3059 41.6668L15.8526 41.337L16.3345 41.0388C16.6748 40.8265 16.9335 40.4453 16.8758 39.8435C16.8181 39.2416 15.4751 37.9501 14.2306 37.2173L13.941 37.0489L13.6654 36.8953C12.7632 36.4072 11.9925 36.1574 10.3314 36.0772L10.0754 36.0665L9.79577 36.0603L9.52072 36.0622C7.52068 36.1046 5.89542 36.7802 4.68491 37.8228C3.95172 38.4543 3.40973 39.2337 3.05895 40.1611C2.47952 39.5146 1.97652 38.7917 1.55528 37.9978L1.39398 37.6855L1.24116 37.3702C0.646911 36.0987 0.257688 34.6788 0.09184 32.1796C0.911161 32.3994 1.82531 32.509 2.83404 32.509C5.10699 32.509 6.89574 31.9524 8.20028 30.8392C9.50483 29.726 10.1971 28.0884 10.2772 25.9266L10.3079 24.9431L10.3209 24.3376L10.3252 23.8454L10.3216 23.4104L10.2998 22.4534L10.2772 21.74C10.2131 19.6104 9.51283 17.9688 8.17627 16.8153C6.83971 15.6618 5.05897 15.085 2.83404 15.085C1.79119 15.085 0.846263 15.2099 -0.000732422 15.4597L0.00333484 14.3919L0.0121045 13.7768L0.0266833 13.1947L0.0470408 12.6442L0.0731463 12.1238L0.104969 11.6318C0.110748 11.5521 0.116764 11.4735 0.123015 11.396L0.163358 10.9439L0.209341 10.5163L0.260935 10.1118C0.27 10.0462 0.279297 9.98156 0.288827 9.91774L0.34878 9.54493C0.369688 9.42394 0.391519 9.30615 0.414267 9.1913L0.485258 8.85532L0.561723 8.53542L0.64363 8.23006C0.657733 8.18029 0.672062 8.13107 0.686615 8.08235L0.77663 7.7959C0.79208 7.74909 0.807754 7.70273 0.823651 7.65677L0.921704 7.38575L1.02508 7.12308C1.04275 7.07991 1.06064 7.03702 1.07875 6.99438L1.19005 6.74133L1.30659 6.49275L1.42834 6.24709L1.55528 6.00282C2.56986 4.09072 4.0587 2.5901 5.95579 1.5675L6.31974 1.37754L6.56473 1.25744L6.81339 1.14262C6.85522 1.12392 6.89727 1.10545 6.93957 1.08719L7.19662 0.980332C7.24005 0.962967 7.28378 0.945824 7.32787 0.928905L7.59676 0.830077L7.87548 0.736642C7.97019 0.706399 8.0668 0.677061 8.16555 0.648632L8.46851 0.566076L8.7859 0.489007L9.11925 0.417454C9.2332 0.394526 9.35006 0.372522 9.4701 0.351448L9.83999 0.291021C9.90331 0.281417 9.96748 0.272046 10.0325 0.262909L10.4339 0.210907L10.8581 0.164559L11.3067 0.123898L11.7812 0.0889535L12.2833 0.0597562L12.8143 0.0363371L13.376 0.0187269L13.9697 0.00695647L14.597 0.0010565L16.751 0C16.7342 2.0062 16.5777 3.59802 16.2821 4.78193L16.225 4.99913C15.8729 6.27367 15.2726 6.98353 14.4243 7.12873C14.0941 7.19528 13.9002 7.34968 13.8424 7.59192L13.8282 7.67592L13.824 7.75793V10.4441L13.8294 10.5235C13.8472 10.6534 13.9094 10.7722 14.0161 10.8797C14.1442 11.0088 14.2882 11.0733 14.4483 11.0733C16.2731 11.0411 17.6616 10.666 18.614 9.94803C19.5664 9.2301 20.2187 8.11287 20.5709 6.59633C20.8886 5.22803 21.063 3.36066 21.094 0.994202L21.0979 0.595172L21.099 0H25.4208ZM30.5451 39.8435L30.5448 43.9744L29.8549 43.991L29.1183 43.9993L27.8777 44.0005C27.317 43.969 26.8855 43.7973 26.5834 43.4856C26.2473 43.1387 26.0792 42.6426 26.0792 41.9973C26.0792 41.3519 26.2553 40.8316 26.6074 40.4364C26.8979 40.1103 27.2811 39.9187 27.7568 39.8616L27.9188 39.8476L28.072 39.8435H30.5451ZM21.7511 15.085C19.4942 15.085 17.7055 15.6537 16.3849 16.7911C15.0643 17.9285 14.3641 19.5459 14.284 21.6432L14.2766 21.8961L14.264 22.7345L14.2606 23.379V24.2559L14.2705 25.4142L14.2801 25.8343L14.284 25.9508C14.3641 28.0965 15.0563 29.726 16.3609 30.8392C17.6654 31.9524 19.4622 32.509 21.7511 32.509C23.1757 32.509 24.4523 32.2751 25.5807 31.8072C26.7092 31.3393 27.6016 30.6617 28.2579 29.7744C28.9141 28.8871 29.2583 27.8384 29.2903 26.6284C29.2903 26.4832 29.2383 26.3622 29.1342 26.2654C29.0718 26.2073 29.0022 26.1666 28.9253 26.1434L28.8461 26.126L28.7621 26.1202H25.3527L25.2453 26.1239C25.0741 26.1362 24.9418 26.1793 24.8484 26.2533C24.7551 26.3272 24.6784 26.4544 24.6183 26.6348L24.5843 26.7494C24.3762 27.5238 24.0361 28.0723 23.5639 28.395C23.0917 28.7177 22.4875 28.879 21.7511 28.879C19.9989 28.879 19.0654 27.9251 18.9505 26.0174L18.9374 25.6813L18.9265 25.156L18.9188 24.2689L18.9197 23.0858L18.9307 22.1728L18.942 21.7642C19.006 19.7314 19.9424 18.715 21.7511 18.715C22.5035 18.715 23.1077 18.8723 23.5639 19.1869C24.0201 19.5015 24.3602 20.0541 24.5843 20.8446C24.6644 21.0866 24.7564 21.252 24.8604 21.3407C24.9298 21.3998 25.0258 21.4393 25.1486 21.459L25.2456 21.4701L25.3527 21.4738H28.7621L28.8461 21.468C28.955 21.4525 29.051 21.406 29.1342 21.3286C29.2383 21.2318 29.2903 21.1108 29.2903 20.9656C29.2583 19.7556 28.9141 18.7069 28.2579 17.8196C27.6016 16.9323 26.7092 16.2547 25.5807 15.7868C24.4523 15.3189 23.1757 15.085 21.7511 15.085ZM40.8215 18.715C41.6539 18.715 42.3181 18.9691 42.8143 19.4773C43.3106 19.9855 43.5747 20.7639 43.6067 21.8126L43.6427 22.9802L43.6534 23.5503V23.9966L43.6384 24.7504L43.6067 25.7814C43.5747 26.8301 43.3106 27.6085 42.8143 28.1167C42.3181 28.6249 41.6539 28.879 40.8215 28.879C39.9732 28.879 39.3009 28.6249 38.8047 28.1167C38.3415 27.6424 38.0806 26.9326 38.0218 25.9875L38.0078 25.635L37.997 25.1231L37.9905 24.5024V23.0577L37.997 22.4515L38.0078 21.9542L38.0123 21.8126C38.0443 20.7639 38.3085 19.9855 38.8047 19.4773C39.3009 18.9691 39.9732 18.715 40.8215 18.715ZM2.83404 18.715C3.66639 18.715 4.33066 18.9691 4.82687 19.4773C5.32308 19.9855 5.58719 20.7639 5.6192 21.8126L5.65522 22.9802L5.66589 23.5503V23.9966L5.65088 24.7504L5.6192 25.7814C5.58719 26.8301 5.32308 27.6085 4.82687 28.1167C4.33066 28.6249 3.66639 28.879 2.83404 28.879C1.98568 28.879 1.3134 28.6249 0.817194 28.1167C0.354067 27.6424 0.0931218 26.9326 0.0343594 25.9875L0.0203002 25.635L0.00949571 25.1231L0.00181249 24.2713V23.2839L0.00949571 22.4515L0.0203002 21.9542L0.0248621 21.8126C0.0568755 20.7639 0.320986 19.9855 0.817194 19.4773C1.3134 18.9691 1.98568 18.715 2.83404 18.715ZM7.37579 6.52667C6.11166 6.52667 5.07577 7.54421 5.09332 8.80065C5.07577 10.0748 6.11166 11.1012 7.37579 11.1012C8.57848 11.1012 9.6407 10.0748 9.65826 8.80065C9.6407 7.54421 8.57848 6.52667 7.37579 6.52667ZM42.1002 6.00282C42.2905 6.36157 42.4642 6.71978 42.6207 7.09956C42.1502 7.49054 41.5503 7.68533 40.8215 7.68533C39.9732 7.68533 39.3009 7.43123 38.8047 6.92303C38.3415 6.44871 38.0806 5.73899 38.0218 4.79386L38.0078 4.44132L37.997 3.92949L37.9905 3.30876L37.9901 1.92073C37.9905 1.85581 37.991 1.79242 37.9915 1.73057C39.7502 2.74719 41.1383 4.1901 42.1002 6.00282Z" fill="white"/>
<path d="M60.0291 20.0613C60.2071 20.0613 60.3568 20.0042 60.4782 19.8901C60.5995 19.7759 60.6602 19.6291 60.6602 19.4496V10.5432L63.2574 15.3879C63.5002 15.7631 63.7834 15.9507 64.107 15.9507H65.4177C65.7737 15.9507 66.0569 15.7631 66.2673 15.3879L68.8888 10.5432V19.4496C68.8888 19.6128 68.9494 19.7555 69.0708 19.8778C69.1922 20.0002 69.3338 20.0613 69.4956 20.0613H72.5783C72.7563 20.0613 72.9059 20.0042 73.0273 19.8901C73.1487 19.7759 73.2093 19.6291 73.2093 19.4496V3.56977C73.2093 3.39033 73.1487 3.23945 73.0273 3.11711C72.9059 2.99476 72.7563 2.93359 72.5783 2.93359H69.8354C69.4309 2.93359 69.1396 3.11303 68.9616 3.47189L64.7624 11.0081L60.5874 3.47189C60.4094 3.11303 60.1181 2.93359 59.7136 2.93359H56.9707C56.7927 2.93359 56.6431 2.99476 56.5217 3.11711C56.4003 3.23945 56.3396 3.39033 56.3396 3.56977V19.4496C56.3396 19.6291 56.4003 19.7759 56.5217 19.8901C56.6431 20.0042 56.7927 20.0613 56.9707 20.0613H60.0291ZM80.0366 20.0613C80.2146 20.0613 80.3643 20.0042 80.4856 19.8901C80.607 19.7759 80.6677 19.6291 80.6677 19.4496V15.2656H84.7941V19.4496C84.7941 19.6291 84.8548 19.7759 84.9761 19.8901C85.0975 20.0042 85.2472 20.0613 85.4252 20.0613H88.4593C88.6373 20.0613 88.7829 20.0002 88.8962 19.8778C89.0095 19.7555 89.0661 19.6128 89.0661 19.4496V7.94958C89.0661 7.77014 89.0095 7.62333 88.8962 7.50915C88.7829 7.39496 88.6373 7.33787 88.4593 7.33787H85.4252C85.2472 7.33787 85.0975 7.39496 84.9761 7.50915C84.8548 7.62333 84.7941 7.77014 84.7941 7.94958V11.9379H80.6677V7.94958C80.6677 7.77014 80.607 7.62333 80.4856 7.50915C80.3643 7.39496 80.2146 7.33787 80.0366 7.33787H77.0025C76.8406 7.33787 76.699 7.39496 76.5777 7.50915C76.4563 7.62333 76.3956 7.77014 76.3956 7.94958V19.4496C76.3956 19.6128 76.4563 19.7555 76.5777 19.8778C76.699 20.0002 76.8406 20.0613 77.0025 20.0613H80.0366ZM97.8707 20.306C99.9096 20.306 101.475 19.8289 102.568 18.8746C103.66 17.9204 104.254 16.5624 104.352 14.8007C104.384 14.3766 104.4 14.0095 104.4 13.6996C104.4 13.3897 104.384 13.0227 104.352 12.5985C104.254 10.8694 103.644 9.51962 102.519 8.54905C101.394 7.57847 99.8449 7.09319 97.8707 7.09319C95.8965 7.09319 94.3471 7.57847 93.2224 8.54905C92.0978 9.51962 91.4869 10.8694 91.3898 12.5985C91.3736 12.8106 91.3655 13.1776 91.3655 13.6996L91.3658 13.8679C91.3674 14.3012 91.3754 14.6122 91.3898 14.8007C91.4869 16.5624 92.0816 17.9204 93.1739 18.8746C94.2661 19.8289 95.8318 20.306 97.8707 20.306ZM97.8707 17.223C97.2072 17.223 96.7137 17.015 96.39 16.5991C96.0664 16.1831 95.8803 15.5429 95.8318 14.6783L95.8075 13.6996L95.8318 12.7209C95.8803 11.8726 96.0664 11.2365 96.39 10.8124C96.7137 10.3882 97.2072 10.1762 97.8707 10.1762C98.5341 10.1762 99.0277 10.3882 99.3513 10.8124C99.675 11.2365 99.8611 11.8726 99.9096 12.7209C99.9258 12.884 99.9339 13.2102 99.9339 13.6996C99.9339 14.189 99.9258 14.5152 99.9096 14.6783C99.8611 15.5429 99.675 16.1831 99.3513 16.5991C99.0277 17.015 98.5341 17.223 97.8707 17.223ZM110.347 20.0613C110.525 20.0613 110.675 20.0042 110.796 19.8901C110.917 19.7759 110.978 19.6291 110.978 19.4496V10.6655H115.517C115.695 10.6655 115.841 10.6044 115.954 10.482C116.067 10.3597 116.124 10.217 116.124 10.0538V7.94958C116.124 7.77014 116.067 7.62333 115.954 7.50915C115.841 7.39496 115.695 7.33787 115.517 7.33787H107.313C107.151 7.33787 107.009 7.39496 106.888 7.50915C106.767 7.62333 106.706 7.77014 106.706 7.94958V19.4496C106.706 19.6128 106.767 19.7555 106.888 19.8778C107.009 20.0002 107.151 20.0613 107.313 20.0613H110.347ZM123.645 20.306C125.684 20.306 127.25 19.8289 128.342 18.8746C129.434 17.9204 130.029 16.5624 130.126 14.8007C130.158 14.3766 130.175 14.0095 130.175 13.6996C130.175 13.3897 130.158 13.0227 130.126 12.5985C130.029 10.8694 129.418 9.51962 128.293 8.54905C127.169 7.57847 125.619 7.09319 123.645 7.09319C121.671 7.09319 120.121 7.57847 118.997 8.54905C117.872 9.51962 117.261 10.8694 117.164 12.5985C117.148 12.8106 117.14 13.1776 117.14 13.6996L117.14 13.8679C117.142 14.3012 117.15 14.6122 117.164 14.8007C117.261 16.5624 117.856 17.9204 118.948 18.8746C120.041 19.8289 121.606 20.306 123.645 20.306ZM123.649 17.223C122.985 17.223 122.492 17.015 122.168 16.5991C121.844 16.1831 121.658 15.5429 121.61 14.6783L121.585 13.6996L121.61 12.7209C121.658 11.8726 121.844 11.2365 122.168 10.8124C122.492 10.3882 122.985 10.1762 123.649 10.1762C124.312 10.1762 124.806 10.3882 125.129 10.8124C125.453 11.2365 125.639 11.8726 125.688 12.7209C125.704 12.884 125.712 13.2102 125.712 13.6996C125.712 14.189 125.704 14.5152 125.688 14.6783C125.639 15.5429 125.453 16.1831 125.129 16.5991C124.806 17.015 124.312 17.223 123.649 17.223ZM67.8693 40.8222C68.0473 40.8222 68.1929 40.7611 68.3062 40.6387C68.4195 40.5164 68.4761 40.3737 68.4761 40.2105V28.7105C68.4761 28.531 68.4195 28.3842 68.3062 28.2701C68.1929 28.1559 68.0473 28.0988 67.8693 28.0988H58.1601C57.9983 28.0988 57.8567 28.1559 57.7353 28.2701C57.614 28.3842 57.5533 28.531 57.5533 28.7105V32.2094C57.5533 33.9875 57.44 35.268 57.2135 36.0509C56.9869 36.8339 56.55 37.258 55.9027 37.3233C55.7247 37.3559 55.5791 37.4252 55.4658 37.5313C55.3525 37.6373 55.2959 37.7719 55.2959 37.935V40.1861C55.2959 40.3655 55.3566 40.5164 55.4779 40.6387C55.5993 40.7611 55.749 40.8222 55.927 40.8222C57.4643 40.8222 58.6334 40.5735 59.4344 40.076C60.2355 39.5784 60.7978 38.7547 61.1214 37.6047C61.4451 36.4547 61.6069 34.8112 61.6069 32.6743V31.4265H64.2041V40.2105C64.2041 40.39 64.2648 40.5368 64.3861 40.651C64.5075 40.7651 64.6572 40.8222 64.8352 40.8222H67.8693ZM77.4328 41.0669C79.4718 41.0669 81.0374 40.5898 82.1297 39.6355C83.222 38.6813 83.8166 37.3233 83.9137 35.5616C83.9461 35.1375 83.9623 34.7704 83.9623 34.4605C83.9623 34.1506 83.9461 33.7836 83.9137 33.3594C83.8166 31.6304 83.2058 30.2805 82.0811 29.31C80.9565 28.3394 79.407 27.8541 77.4328 27.8541C75.4586 27.8541 73.9092 28.3394 72.7846 29.31C71.6599 30.2805 71.0491 31.6304 70.952 33.3594C70.9358 33.5715 70.9277 33.9385 70.9277 34.4605L70.928 34.6288C70.9296 35.0621 70.9376 35.3731 70.952 35.5616C71.0491 37.3233 71.6437 38.6813 72.736 39.6355C73.8283 40.5898 75.3939 41.0669 77.4328 41.0669ZM77.4328 37.9839C76.7694 37.9839 76.2758 37.776 75.9522 37.36C75.6286 36.944 75.4425 36.3038 75.3939 35.4392L75.3696 34.4605L75.3939 33.4818C75.4425 32.6335 75.6286 31.9974 75.9522 31.5733C76.2758 31.1491 76.7694 30.9371 77.4328 30.9371C78.0963 30.9371 78.5899 31.1491 78.9135 31.5733C79.2371 31.9974 79.4232 32.6335 79.4718 33.4818C79.488 33.6449 79.496 33.9711 79.496 34.4605C79.496 34.9499 79.488 35.2761 79.4718 35.4392C79.4232 36.3038 79.2371 36.944 78.9135 37.36C78.5899 37.776 78.0963 37.9839 77.4328 37.9839ZM92.1423 41.0669C93.5986 41.0669 94.8123 40.7978 95.7832 40.2595C96.7541 39.7212 97.4621 39.0972 97.9071 38.3877C98.3521 37.6781 98.5746 37.0704 98.5746 36.5648C98.5746 36.4017 98.5099 36.263 98.3804 36.1488C98.251 36.0346 98.1053 35.9775 97.9435 35.9775H94.6909C94.5129 35.9775 94.3754 36.0183 94.2783 36.0999C94.1812 36.1814 94.0922 36.3119 94.0113 36.4914C93.8333 36.9644 93.6108 37.3029 93.3438 37.5068C93.0768 37.7107 92.7086 37.8127 92.2394 37.8127C91.6083 37.8127 91.1309 37.6128 90.8073 37.2132C90.4836 36.8135 90.3137 36.1896 90.2975 35.3414L90.2733 34.5339L90.2975 33.6041C90.3461 31.9403 90.9933 31.1084 92.2394 31.1084C92.6763 31.1084 93.0363 31.2144 93.3195 31.4265C93.6027 31.6385 93.8333 31.9729 94.0113 32.4296C94.0922 32.6091 94.1812 32.7396 94.2783 32.8211C94.3754 32.9027 94.5129 32.9435 94.6909 32.9435H97.9435C98.1215 32.9435 98.2752 32.8823 98.4047 32.76C98.5341 32.6376 98.5908 32.4867 98.5746 32.3073C98.5422 31.7364 98.2914 31.1043 97.8221 30.411C97.3529 29.7178 96.6409 29.1183 95.6861 28.6126C94.7314 28.1069 93.5501 27.8541 92.1423 27.8541C90.2975 27.8541 88.8007 28.3516 87.6518 29.3467C86.5028 30.3417 85.896 31.7201 85.8313 33.4818L85.807 34.485L85.8313 35.4637C85.9122 37.2254 86.5231 38.5997 87.6639 39.5866C88.8047 40.5735 90.2975 41.0669 92.1423 41.0669ZM106.73 41.0669C108.769 41.0669 110.335 40.5898 111.427 39.6355C112.519 38.6813 113.114 37.3233 113.211 35.5616C113.244 35.1375 113.26 34.7704 113.26 34.4605C113.26 34.1506 113.244 33.7836 113.211 33.3594C113.114 31.6304 112.503 30.2805 111.379 29.31C110.254 28.3394 108.705 27.8541 106.73 27.8541C104.756 27.8541 103.207 28.3394 102.082 29.31C100.957 30.2805 100.347 31.6304 100.249 33.3594C100.233 33.5715 100.225 33.9385 100.225 34.4605L100.225 34.6288C100.227 35.0621 100.235 35.3731 100.249 35.5616C100.347 37.3233 100.941 38.6813 102.033 39.6355C103.126 40.5898 104.691 41.0669 106.73 41.0669ZM106.73 37.9839C106.067 37.9839 105.573 37.776 105.25 37.36C104.926 36.944 104.74 36.3038 104.691 35.4392L104.667 34.4605L104.691 33.4818C104.74 32.6335 104.926 31.9974 105.25 31.5733C105.573 31.1491 106.067 30.9371 106.73 30.9371C107.394 30.9371 107.887 31.1491 108.211 31.5733C108.535 31.9974 108.721 32.6335 108.769 33.4818C108.785 33.6449 108.794 33.9711 108.794 34.4605C108.794 34.9499 108.785 35.2761 108.769 35.4392C108.721 36.3038 108.535 36.944 108.211 37.36C107.887 37.776 107.394 37.9839 106.73 37.9839ZM121.44 41.0669C122.896 41.0669 124.11 40.7978 125.081 40.2595C126.052 39.7212 126.76 39.0972 127.205 38.3877C127.65 37.6781 127.872 37.0704 127.872 36.5648C127.872 36.4017 127.807 36.263 127.678 36.1488C127.548 36.0346 127.403 35.9775 127.241 35.9775H123.988C123.81 35.9775 123.673 36.0183 123.576 36.0999C123.479 36.1814 123.39 36.3119 123.309 36.4914C123.131 36.9644 122.908 37.3029 122.641 37.5068C122.374 37.7107 122.006 37.8127 121.537 37.8127C120.906 37.8127 120.428 37.6128 120.105 37.2132C119.781 36.8135 119.611 36.1896 119.595 35.3414L119.571 34.5339L119.595 33.6041C119.644 31.9403 120.291 31.1084 121.537 31.1084C121.974 31.1084 122.334 31.2144 122.617 31.4265C122.9 31.6385 123.131 31.9729 123.309 32.4296C123.39 32.6091 123.479 32.7396 123.576 32.8211C123.673 32.9027 123.81 32.9435 123.988 32.9435H127.241C127.419 32.9435 127.573 32.8823 127.702 32.76C127.832 32.6376 127.888 32.4867 127.872 32.3073C127.84 31.7364 127.589 31.1043 127.12 30.411C126.65 29.7178 125.938 29.1183 124.984 28.6126C124.029 28.1069 122.848 27.8541 121.44 27.8541C119.595 27.8541 118.098 28.3516 116.949 29.3467C115.8 30.3417 115.193 31.7201 115.129 33.4818L115.104 34.485L115.129 35.4637C115.21 37.2254 115.821 38.5997 116.961 39.5866C118.102 40.5735 119.595 41.0669 121.44 41.0669ZM133.333 40.8222C133.592 40.8222 133.778 40.6999 133.892 40.4552L135.858 36.785H137.508V40.2105C137.508 40.39 137.569 40.5368 137.69 40.651C137.812 40.7651 137.962 40.8222 138.14 40.8222H141.271C141.449 40.8222 141.594 40.7611 141.708 40.6387C141.821 40.5164 141.878 40.3737 141.878 40.2105V28.7105C141.878 28.531 141.821 28.3842 141.708 28.2701C141.594 28.1559 141.449 28.0988 141.271 28.0988H135.372C133.738 28.0988 132.464 28.4699 131.549 29.2121C130.635 29.9543 130.178 31.0186 130.178 32.4052C130.178 33.2208 130.356 33.9304 130.712 34.5339C131.068 35.1375 131.586 35.6187 132.265 35.9775L129.862 39.9903C129.782 40.0882 129.741 40.2024 129.741 40.3329C129.741 40.4634 129.79 40.5776 129.887 40.6754C129.984 40.7733 130.113 40.8222 130.275 40.8222H133.333ZM137.606 33.8733H135.542C135.025 33.8733 134.632 33.7428 134.365 33.4818C134.098 33.2208 133.965 32.8619 133.965 32.4052C133.965 31.9158 134.098 31.561 134.365 31.3408C134.632 31.1206 135.049 31.0105 135.615 31.0105H137.606V33.8733Z" fill="white"/>
</g>
<defs>
<clipPath id="clip0_5843_5778">
<rect width="141.878" height="44" fill="white"/>
</clipPath>
</defs>
</svg>
