<svg width="147" height="159" viewBox="0 0 147 159" fill="none" xmlns="http://www.w3.org/2000/svg">
<path fill-rule="evenodd" clip-rule="evenodd" d="M29.0394 58L29.0394 68.2302L29.0465 68.3224C29.0655 68.4423 29.1222 68.5495 29.2168 68.6441C29.2925 68.7197 29.3762 68.7712 29.4681 68.7985L29.5384 68.8143L29.6307 68.8214H32.8706L32.9713 68.8148C33.1012 68.7972 33.2135 68.7442 33.3081 68.6559C33.3869 68.5823 33.4395 68.4947 33.4658 68.3931L33.4805 68.3143L33.4855 68.2302L33.4864 58.0109L33.8212 58.0182L34.4592 58.0386L35.0572 58.0666L35.6175 58.1022C36.0693 58.135 36.4844 58.1756 36.8687 58.2239L36.8648 58.2762L36.8496 58.6643L36.8371 59.2991L36.8302 60.3477L36.8307 61.0289L36.8368 61.8601L36.8457 62.3557L36.8537 62.6253C36.9325 64.738 37.6183 66.3382 38.9111 67.4261C40.204 68.514 41.9698 69.0579 44.2085 69.0579C45.1764 69.0579 46.0552 68.9563 46.8448 68.7529C46.8684 68.9981 46.8894 69.2549 46.9076 69.5247L46.9406 70.0819L46.9663 70.6758C46.9699 70.778 46.9733 70.8817 46.9764 70.9872L46.9911 71.6403C46.9948 71.8648 46.9973 72.0965 46.9985 72.3355L47 73.1128C46.1655 72.8655 45.235 72.7418 44.2085 72.7418C42.0013 72.7418 40.2394 73.3055 38.923 74.4328C37.6614 75.5131 36.9753 77.0314 36.8648 78.9878L36.8496 79.3758L36.8371 80.0106L36.8302 81.0592L36.8307 81.7405L36.8368 82.5716L36.8457 83.0672L36.8537 83.3368C36.9325 85.4495 37.6183 87.0498 38.9111 88.1377C40.204 89.2255 41.9698 89.7695 44.2085 89.7695C45.203 89.7695 46.1033 89.6621 46.9096 89.4475C46.7461 91.8899 46.3627 93.2776 45.7774 94.5201L45.6268 94.8282L45.468 95.1334C44.4686 97.002 43.0022 98.4685 41.1336 99.4679C40.3396 99.8925 39.5483 100.233 38.5086 100.484L38.509 94.1228L38.5044 94.0387C38.489 93.903 38.4354 93.7891 38.3434 93.6971C38.2699 93.6236 38.1823 93.5745 38.0807 93.55L38.0018 93.5362L37.9177 93.5316H31.5561L31.2466 93.5357C30.0219 93.5687 28.9584 93.7999 28.0561 94.2292C27.0786 94.6943 26.3376 95.3447 25.8331 96.1803C25.3285 97.0159 25.0763 97.9698 25.0763 99.0419C25.0763 99.7517 25.1822 100.404 25.3942 101L18.7002 100.999C18.472 100.999 18.2504 100.998 18.035 100.996L17.4069 100.987L16.8144 100.971C16.7185 100.968 16.624 100.964 16.5308 100.961L15.9882 100.936L15.4766 100.904C15.311 100.893 15.1504 100.88 14.9943 100.867L14.5396 100.823C14.0246 100.768 13.5624 100.701 13.1404 100.622L12.7883 100.551L12.4541 100.475C12.3456 100.448 12.2397 100.42 12.1362 100.392L11.8328 100.303C11.6845 100.258 11.5409 100.21 11.4011 100.159L11.1263 100.056L11.1338 99.8223C11.1969 97.8358 12.1192 96.8425 13.9008 96.8425C14.6418 96.8425 15.2369 96.9962 15.6863 97.3037L15.9199 97.4652C16.2813 97.7206 16.6823 98.0429 16.983 98.5287L17.0793 98.6968C17.3457 99.2008 17.6015 99.2664 17.8062 99.264L17.8969 99.2593L17.9794 99.2532C17.9925 99.2525 18.0051 99.252 18.0174 99.252C18.0442 99.252 18.0889 99.2394 18.1516 99.2141L18.2591 99.1667L18.4709 99.0601L18.7434 98.9108L19.0765 98.7189L19.615 98.3967L20.0897 98.1053C20.4248 97.8978 20.6796 97.5252 20.6228 96.9371C20.566 96.349 19.2431 95.0868 18.0174 94.3707L17.7321 94.2062L17.4607 94.056C16.5721 93.579 15.8129 93.3349 14.1768 93.2566L13.9247 93.246L13.6492 93.24L13.3783 93.2418C11.4083 93.2833 9.80751 93.9435 8.6152 94.9624C7.89303 95.5795 7.35919 96.3412 7.01368 97.2476C6.44296 96.6158 5.94753 95.9093 5.53262 95.1334L5.37375 94.8282L5.22322 94.5201C4.63791 93.2776 4.25454 91.8899 4.09118 89.4476C4.89818 89.6623 5.79859 89.7695 6.79215 89.7695C9.03093 89.7695 10.7928 89.2255 12.0777 88.1377C13.3627 87.0498 14.0445 85.4495 14.1234 83.3368L14.1536 82.3757L14.1664 81.784L14.1707 81.303L14.1672 80.8778L14.1457 79.9426L14.1234 79.2454C14.0603 77.1643 13.3705 75.5601 12.0541 74.4328C10.7376 73.3055 8.98364 72.7418 6.79215 72.7418C5.76498 72.7418 4.83426 72.8639 4 73.108L4.00401 72.0646L4.01264 71.4634L4.027 70.8946L4.04705 70.3566L4.07277 69.848L4.10411 69.3672C4.1098 69.2893 4.11573 69.2125 4.12189 69.1368L4.16162 68.6949L4.20692 68.2771L4.25773 67.8818C4.26666 67.8177 4.27582 67.7545 4.28521 67.6921L4.34426 67.3278C4.36485 67.2096 4.38635 67.0945 4.40876 66.9822L4.47868 66.6539L4.554 66.3413L4.63468 66.0428C4.64857 65.9942 4.66268 65.9461 4.67701 65.8985L4.76568 65.6186C4.78089 65.5728 4.79633 65.5275 4.81199 65.4826L4.90857 65.2177L5.01039 64.961C5.02779 64.9189 5.04541 64.8769 5.06325 64.8353L5.17288 64.588L5.28767 64.345L5.40759 64.105L5.53262 63.8663C6.53194 61.9977 7.99841 60.5312 9.86698 59.5318L10.2255 59.3462L10.4668 59.2288L10.7117 59.1166C10.7529 59.0984 10.7943 59.0803 10.836 59.0625L11.0892 58.958C11.1319 58.9411 11.175 58.9243 11.2184 58.9078L11.4833 58.8112L11.7578 58.7199C11.8511 58.6903 11.9462 58.6617 12.0435 58.6339L12.3419 58.5532L12.6545 58.4779L12.9829 58.408C13.0951 58.3856 13.2102 58.364 13.3285 58.3435L13.6928 58.2844C13.7551 58.275 13.8184 58.2659 13.8824 58.2569L14.2777 58.2061L14.6956 58.1608L15.1374 58.1211L15.6048 58.0869L16.0993 58.0584L16.6224 58.0355L17.1756 58.0183L17.7604 58.0068L18.3783 58.001L20.4999 58C20.4834 59.9606 20.3292 61.5162 20.038 62.6732L19.9818 62.8854C19.635 64.131 19.0438 64.8247 18.2082 64.9666C17.883 65.0316 17.6919 65.1825 17.635 65.4192L17.621 65.5013L17.6169 65.5815V68.2066L17.6222 68.2841C17.6397 68.4111 17.701 68.5271 17.8061 68.6322C17.9323 68.7584 18.0741 68.8214 18.2318 68.8214C20.0291 68.7899 21.3968 68.4233 22.3349 67.7217C23.273 67.0201 23.9155 65.9283 24.2623 64.4463C24.5753 63.1091 24.747 61.2842 24.7776 58.9716L24.7814 58.5816L24.7825 58H29.0394ZM34.0866 96.9371L34.0864 100.974L33.4068 100.99L32.6813 100.998L31.4594 101C30.907 100.969 30.4821 100.801 30.1845 100.496C29.8534 100.157 29.6879 99.6726 29.6879 99.0419C29.6879 98.4113 29.8613 97.9028 30.2081 97.5165C30.4943 97.1978 30.8717 97.0106 31.3402 96.9549L31.4998 96.9411L31.6507 96.9371H34.0866ZM25.4249 72.7418C23.2019 72.7418 21.44 73.2976 20.1393 74.4091C18.8386 75.5206 18.1488 77.1012 18.07 79.1508L18.0627 79.398L18.0503 80.2174L18.0469 80.8472V81.7042L18.0567 82.8361L18.0662 83.2466L18.07 83.3605C18.1488 85.4574 18.8307 87.0498 20.1156 88.1377C21.4006 89.2255 23.1703 89.7695 25.4249 89.7695C26.828 89.7695 28.0854 89.5409 29.1969 89.0836C30.3084 88.6264 31.1874 87.9642 31.8338 87.0971C32.4802 86.2299 32.8192 85.2051 32.8507 84.0226C32.8507 83.8807 32.7994 83.7625 32.697 83.6679C32.6355 83.6111 32.5669 83.5714 32.4912 83.5487L32.4132 83.5317L32.3304 83.526H28.9722L28.8665 83.5296C28.6979 83.5417 28.5676 83.5838 28.4756 83.6561C28.3836 83.7283 28.3081 83.8526 28.249 84.0289L28.2155 84.1409C28.0105 84.8977 27.6755 85.4337 27.2104 85.7491C26.7453 86.0644 26.1501 86.222 25.4249 86.222C23.699 86.222 22.7795 85.2899 22.6664 83.4255L22.6534 83.0971L22.6427 82.5838L22.6351 81.7168L22.636 80.5606L22.6468 79.6684L22.6579 79.2691C22.721 77.2825 23.6433 76.2893 25.4249 76.2893C26.1659 76.2893 26.761 76.443 27.2104 76.7504C27.6597 77.0579 27.9947 77.5979 28.2155 78.3704C28.2943 78.6069 28.3849 78.7685 28.4874 78.8552C28.5557 78.913 28.6503 78.9516 28.7712 78.9708L28.8668 78.9817L28.9722 78.9853H32.3304L32.4132 78.9796C32.5204 78.9645 32.615 78.9191 32.697 78.8434C32.7994 78.7488 32.8507 78.6306 32.8507 78.4887C32.8192 77.3062 32.4802 76.2814 31.8338 75.4142C31.1874 74.5471 30.3084 73.8849 29.1969 73.4277C28.0854 72.9704 26.828 72.7418 25.4249 72.7418ZM44.2085 76.2893C45.0284 76.2893 45.6827 76.5376 46.1714 77.0342C46.6602 77.5309 46.9203 78.2916 46.9518 79.3164L46.9873 80.4575L46.9978 81.0146V81.4508L46.983 82.1873L46.9518 83.1949C46.9203 84.2197 46.6602 84.9804 46.1714 85.4771C45.6827 85.9737 45.0284 86.222 44.2085 86.222C43.3729 86.222 42.7108 85.9737 42.222 85.4771C41.7659 85.0136 41.5088 84.32 41.451 83.3964L41.4371 83.0518L41.4265 82.5516L41.4201 81.945V80.5332L41.4265 79.9407L41.4371 79.4547L41.4416 79.3164C41.4731 78.2916 41.7333 77.5309 42.222 77.0342C42.7108 76.5376 43.3729 76.2893 44.2085 76.2893ZM6.79215 76.2893C7.61199 76.2893 8.26628 76.5376 8.75503 77.0342C9.24378 77.5309 9.50392 78.2916 9.53545 79.3164L9.57092 80.4575L9.58143 81.0146V81.4508L9.56665 82.1873L9.53545 83.1949C9.50392 84.2197 9.24378 84.9804 8.75503 85.4771C8.26628 85.9737 7.61199 86.222 6.79215 86.222C5.95655 86.222 5.29438 85.9737 4.80563 85.4771C4.34947 85.0136 4.09244 84.32 4.03456 83.3964L4.02072 83.0518L4.01007 82.5516L4.00251 81.7192V80.7543L4.01007 79.9407L4.02072 79.4547L4.02521 79.3164C4.05674 78.2916 4.31688 77.5309 4.80563 77.0342C5.29438 76.5376 5.95655 76.2893 6.79215 76.2893ZM11.2656 64.3782C10.0205 64.3782 9.00018 65.3726 9.01748 66.6004C9.00018 67.8456 10.0205 68.8486 11.2656 68.8486C12.4502 68.8486 13.4965 67.8456 13.5138 66.6004C13.4965 65.3726 12.4502 64.3782 11.2656 64.3782ZM45.468 63.8663C45.6555 64.2169 45.8265 64.5669 45.9807 64.9381C45.5173 65.3201 44.9264 65.5105 44.2085 65.5105C43.3729 65.5105 42.7108 65.2622 42.222 64.7655C41.7659 64.302 41.5088 63.6084 41.451 62.6848L41.4371 62.3403L41.4265 61.8401L41.4201 61.2335L41.4197 59.877C41.4201 59.8136 41.4205 59.7516 41.421 59.6912C43.1534 60.6847 44.5206 62.0948 45.468 63.8663Z" fill="#FD5700"/>
<path d="M62.6468 77.6187C62.8215 77.6187 62.9685 77.5633 63.0876 77.4525C63.2068 77.3417 63.2663 77.1993 63.2663 77.0252V68.3835L65.8161 73.0842C66.0544 73.4482 66.3324 73.6302 66.6501 73.6302H67.9369C68.2864 73.6302 68.5644 73.4482 68.771 73.0842L71.3446 68.3835V77.0252C71.3446 77.1835 71.4041 77.3219 71.5233 77.4406C71.6424 77.5594 71.7814 77.6187 71.9403 77.6187H74.9666C75.1414 77.6187 75.2883 77.5633 75.4075 77.4525C75.5266 77.3417 75.5862 77.1993 75.5862 77.0252V61.6173C75.5862 61.4432 75.5266 61.2968 75.4075 61.1781C75.2883 61.0594 75.1414 61 74.9666 61H72.2739C71.8767 61 71.5908 61.1741 71.416 61.5223L67.2935 68.8345L63.1948 61.5223C63.0201 61.1741 62.7341 61 62.337 61H59.6442C59.4695 61 59.3225 61.0594 59.2034 61.1781C59.0842 61.2968 59.0247 61.4432 59.0247 61.6173V77.0252C59.0247 77.1993 59.0842 77.3417 59.2034 77.4525C59.3225 77.5633 59.4695 77.6187 59.6442 77.6187H62.6468ZM82.2887 77.6187C82.4635 77.6187 82.6104 77.5633 82.7296 77.4525C82.8487 77.3417 82.9083 77.1993 82.9083 77.0252V72.9655H86.9593V77.0252C86.9593 77.1993 87.0189 77.3417 87.138 77.4525C87.2572 77.5633 87.4041 77.6187 87.5789 77.6187H90.5576C90.7323 77.6187 90.8753 77.5594 90.9865 77.4406C91.0977 77.3219 91.1533 77.1835 91.1533 77.0252V65.8669C91.1533 65.6928 91.0977 65.5504 90.9865 65.4396C90.8753 65.3288 90.7323 65.2734 90.5576 65.2734H87.5789C87.4041 65.2734 87.2572 65.3288 87.138 65.4396C87.0189 65.5504 86.9593 65.6928 86.9593 65.8669V69.7367H82.9083V65.8669C82.9083 65.6928 82.8487 65.5504 82.7296 65.4396C82.6104 65.3288 82.4635 65.2734 82.2887 65.2734H79.31C79.1512 65.2734 79.0122 65.3288 78.893 65.4396C78.7739 65.5504 78.7143 65.6928 78.7143 65.8669V77.0252C78.7143 77.1835 78.7739 77.3219 78.893 77.4406C79.0122 77.5594 79.1512 77.6187 79.31 77.6187H82.2887ZM99.797 77.8561C101.799 77.8561 103.336 77.3932 104.408 76.4673C105.48 75.5414 106.064 74.2237 106.16 72.5144C106.191 72.1029 106.207 71.7468 106.207 71.446C106.207 71.1453 106.191 70.7892 106.16 70.3777C106.064 68.7 105.464 67.3903 104.36 66.4486C103.256 65.5068 101.735 65.036 99.797 65.036C97.8589 65.036 96.3378 65.5068 95.2337 66.4486C94.1296 67.3903 93.5299 68.7 93.4345 70.3777C93.4187 70.5835 93.4107 70.9396 93.4107 71.446L93.411 71.6093C93.4126 72.0298 93.4204 72.3315 93.4345 72.5144C93.5299 74.2237 94.1137 75.5414 95.186 76.4673C96.2583 77.3932 97.7953 77.8561 99.797 77.8561ZM99.797 74.8647C99.1457 74.8647 98.6612 74.6629 98.3434 74.2594C98.0257 73.8558 97.843 73.2345 97.7953 72.3957L97.7715 71.446L97.7953 70.4964C97.843 69.6734 98.0257 69.0561 98.3434 68.6446C98.6612 68.2331 99.1457 68.0273 99.797 68.0273C100.448 68.0273 100.933 68.2331 101.251 68.6446C101.568 69.0561 101.751 69.6734 101.799 70.4964C101.815 70.6547 101.823 70.9712 101.823 71.446C101.823 71.9209 101.815 72.2374 101.799 72.3957C101.751 73.2345 101.568 73.8558 101.251 74.2594C100.933 74.6629 100.448 74.8647 99.797 74.8647ZM112.045 77.6187C112.22 77.6187 112.367 77.5633 112.486 77.4525C112.605 77.3417 112.665 77.1993 112.665 77.0252V68.5022H117.121C117.296 68.5022 117.439 68.4428 117.55 68.3241C117.661 68.2054 117.717 68.0669 117.717 67.9086V65.8669C117.717 65.6928 117.661 65.5504 117.55 65.4396C117.439 65.3288 117.296 65.2734 117.121 65.2734H109.067C108.908 65.2734 108.769 65.3288 108.65 65.4396C108.531 65.5504 108.471 65.6928 108.471 65.8669V77.0252C108.471 77.1835 108.531 77.3219 108.65 77.4406C108.769 77.5594 108.908 77.6187 109.067 77.6187H112.045ZM125.101 77.8561C127.102 77.8561 128.639 77.3932 129.712 76.4673C130.784 75.5414 131.368 74.2237 131.463 72.5144C131.495 72.1029 131.511 71.7468 131.511 71.446C131.511 71.1453 131.495 70.7892 131.463 70.3777C131.368 68.7 130.768 67.3903 129.664 66.4486C128.56 65.5068 127.039 65.036 125.101 65.036C123.162 65.036 121.641 65.5068 120.537 66.4486C119.433 67.3903 118.833 68.7 118.738 70.3777C118.722 70.5835 118.714 70.9396 118.714 71.446L118.715 71.6093C118.716 72.0298 118.724 72.3315 118.738 72.5144C118.833 74.2237 119.417 75.5414 120.49 76.4673C121.562 77.3932 123.099 77.8561 125.101 77.8561ZM125.104 74.8647C124.453 74.8647 123.968 74.6629 123.65 74.2594C123.333 73.8558 123.15 73.2345 123.102 72.3957L123.079 71.446L123.102 70.4964C123.15 69.6734 123.333 69.0561 123.65 68.6446C123.968 68.2331 124.453 68.0273 125.104 68.0273C125.755 68.0273 126.24 68.2331 126.558 68.6446C126.875 69.0561 127.058 69.6734 127.106 70.4964C127.122 70.6547 127.13 70.9712 127.13 71.446C127.13 71.9209 127.122 72.2374 127.106 72.3957C127.058 73.2345 126.875 73.8558 126.558 74.2594C126.24 74.6629 125.755 74.8647 125.104 74.8647ZM70.3437 97.7626C70.5185 97.7626 70.6614 97.7032 70.7726 97.5845C70.8838 97.4658 70.9394 97.3273 70.9394 97.1691V86.0108C70.9394 85.8367 70.8838 85.6942 70.7726 85.5835C70.6614 85.4727 70.5185 85.4173 70.3437 85.4173H60.8119C60.653 85.4173 60.514 85.4727 60.3949 85.5835C60.2757 85.6942 60.2161 85.8367 60.2161 86.0108V89.4058C60.2161 91.1309 60.1049 92.3734 59.8825 93.1331C59.6601 93.8928 59.2312 94.3043 58.5957 94.3676C58.421 94.3993 58.278 94.4665 58.1668 94.5694C58.0556 94.6723 58 94.8029 58 94.9612V97.1453C58 97.3194 58.0596 97.4658 58.1787 97.5845C58.2979 97.7032 58.4448 97.7626 58.6196 97.7626C60.1288 97.7626 61.2766 97.5212 62.0629 97.0385C62.8493 96.5558 63.4014 95.7565 63.7191 94.6406C64.0368 93.5248 64.1957 91.9302 64.1957 89.8568V88.646H66.7454V97.1691C66.7454 97.3432 66.805 97.4856 66.9242 97.5964C67.0433 97.7072 67.1903 97.7626 67.365 97.7626H70.3437ZM79.7325 98C81.7342 98 83.2712 97.537 84.3436 96.6111C85.4159 95.6852 85.9997 94.3676 86.095 92.6583C86.1268 92.2468 86.1427 91.8906 86.1427 91.5899C86.1427 91.2892 86.1268 90.9331 86.095 90.5216C85.9997 88.8439 85.4 87.5342 84.2959 86.5924C83.1918 85.6507 81.6707 85.1799 79.7325 85.1799C77.7944 85.1799 76.2733 85.6507 75.1692 86.5924C74.0651 87.5342 73.4654 88.8439 73.3701 90.5216C73.3542 90.7273 73.3462 91.0835 73.3462 91.5899L73.3465 91.7532C73.3481 92.1737 73.3559 92.4754 73.3701 92.6583C73.4654 94.3676 74.0492 95.6852 75.1215 96.6111C76.1939 97.537 77.7309 98 79.7325 98ZM79.7325 95.0086C79.0812 95.0086 78.5967 94.8068 78.2789 94.4032C77.9612 93.9996 77.7785 93.3784 77.7309 92.5396L77.707 91.5899L77.7309 90.6403C77.7785 89.8173 77.9612 89.2 78.2789 88.7885C78.5967 88.377 79.0812 88.1712 79.7325 88.1712C80.3839 88.1712 80.8684 88.377 81.1862 88.7885C81.5039 89.2 81.6866 89.8173 81.7342 90.6403C81.7501 90.7986 81.7581 91.1151 81.7581 91.5899C81.7581 92.0647 81.7501 92.3813 81.7342 92.5396C81.6866 93.3784 81.5039 93.9996 81.1862 94.4032C80.8684 94.8068 80.3839 95.0086 79.7325 95.0086ZM94.1733 98C95.603 98 96.7945 97.7388 97.7477 97.2165C98.7009 96.6942 99.3959 96.0888 99.8328 95.4004C100.27 94.7119 100.488 94.1223 100.488 93.6317C100.488 93.4734 100.425 93.3388 100.297 93.2281C100.17 93.1173 100.027 93.0619 99.8685 93.0619H96.6754C96.5006 93.0619 96.3656 93.1014 96.2703 93.1806C96.1749 93.2597 96.0876 93.3863 96.0081 93.5604C95.8334 94.0194 95.6149 94.3478 95.3528 94.5457C95.0907 94.7435 94.7293 94.8424 94.2686 94.8424C93.649 94.8424 93.1804 94.6486 92.8626 94.2608C92.5449 93.873 92.3781 93.2676 92.3622 92.4446L92.3384 91.6611L92.3622 90.759C92.4099 89.1446 93.0453 88.3374 94.2686 88.3374C94.6975 88.3374 95.051 88.4403 95.329 88.646C95.607 88.8518 95.8334 89.1763 96.0081 89.6194C96.0876 89.7935 96.1749 89.9201 96.2703 89.9993C96.3656 90.0784 96.5006 90.118 96.6754 90.118H99.8685C100.043 90.118 100.194 90.0586 100.321 89.9399C100.448 89.8212 100.504 89.6748 100.488 89.5007C100.456 88.9468 100.21 88.3335 99.7494 87.6608C99.2887 86.9881 98.5897 86.4065 97.6524 85.9158C96.7151 85.4252 95.5554 85.1799 94.1733 85.1799C92.3622 85.1799 90.8927 85.6626 89.7648 86.6281C88.6369 87.5935 88.0411 88.9309 87.9776 90.6403L87.9537 91.6137L87.9776 92.5633C88.057 94.2727 88.6567 95.6061 89.7767 96.5637C90.8967 97.5212 92.3622 98 94.1733 98ZM108.495 98C110.496 98 112.034 97.537 113.106 96.6111C114.178 95.6852 114.762 94.3676 114.857 92.6583C114.889 92.2468 114.905 91.8906 114.905 91.5899C114.905 91.2892 114.889 90.9331 114.857 90.5216C114.762 88.8439 114.162 87.5342 113.058 86.5924C111.954 85.6507 110.433 85.1799 108.495 85.1799C106.557 85.1799 105.036 85.6507 103.931 86.5924C102.827 87.5342 102.228 88.8439 102.132 90.5216C102.116 90.7273 102.108 91.0835 102.108 91.5899L102.109 91.7532C102.11 92.1737 102.118 92.4754 102.132 92.6583C102.228 94.3676 102.811 95.6852 103.884 96.6111C104.956 97.537 106.493 98 108.495 98ZM108.495 95.0086C107.843 95.0086 107.359 94.8068 107.041 94.4032C106.723 93.9996 106.541 93.3784 106.493 92.5396L106.469 91.5899L106.493 90.6403C106.541 89.8173 106.723 89.2 107.041 88.7885C107.359 88.377 107.843 88.1712 108.495 88.1712C109.146 88.1712 109.631 88.377 109.948 88.7885C110.266 89.2 110.449 89.8173 110.496 90.6403C110.512 90.7986 110.52 91.1151 110.52 91.5899C110.52 92.0647 110.512 92.3813 110.496 92.5396C110.449 93.3784 110.266 93.9996 109.948 94.4032C109.631 94.8068 109.146 95.0086 108.495 95.0086ZM122.936 98C124.365 98 125.557 97.7388 126.51 97.2165C127.463 96.6942 128.158 96.0888 128.595 95.4004C129.032 94.7119 129.25 94.1223 129.25 93.6317C129.25 93.4734 129.187 93.3388 129.06 93.2281C128.933 93.1173 128.79 93.0619 128.631 93.0619H125.438C125.263 93.0619 125.128 93.1014 125.033 93.1806C124.937 93.2597 124.85 93.3863 124.77 93.5604C124.596 94.0194 124.377 94.3478 124.115 94.5457C123.853 94.7435 123.492 94.8424 123.031 94.8424C122.411 94.8424 121.943 94.6486 121.625 94.2608C121.307 93.873 121.14 93.2676 121.124 92.4446L121.101 91.6611L121.124 90.759C121.172 89.1446 121.808 88.3374 123.031 88.3374C123.46 88.3374 123.813 88.4403 124.091 88.646C124.369 88.8518 124.596 89.1763 124.77 89.6194C124.85 89.7935 124.937 89.9201 125.033 89.9993C125.128 90.0784 125.263 90.118 125.438 90.118H128.631C128.806 90.118 128.956 90.0586 129.084 89.9399C129.211 89.8212 129.266 89.6748 129.25 89.5007C129.219 88.9468 128.972 88.3335 128.512 87.6608C128.051 86.9881 127.352 86.4065 126.415 85.9158C125.477 85.4252 124.318 85.1799 122.936 85.1799C121.124 85.1799 119.655 85.6626 118.527 86.6281C117.399 87.5935 116.803 88.9309 116.74 90.6403L116.716 91.6137L116.74 92.5633C116.819 94.2727 117.419 95.6061 118.539 96.5637C119.659 97.5212 121.124 98 122.936 98ZM134.612 97.7626C134.866 97.7626 135.049 97.6439 135.16 97.4065L137.09 93.8453H138.711V97.1691C138.711 97.3432 138.77 97.4856 138.889 97.5964C139.009 97.7072 139.156 97.7626 139.33 97.7626H142.404C142.579 97.7626 142.722 97.7032 142.833 97.5845C142.944 97.4658 143 97.3273 143 97.1691V86.0108C143 85.8367 142.944 85.6942 142.833 85.5835C142.722 85.4727 142.579 85.4173 142.404 85.4173H136.614C135.009 85.4173 133.758 85.7773 132.861 86.4975C131.963 87.2176 131.514 88.2504 131.514 89.5957C131.514 90.3871 131.689 91.0755 132.038 91.6611C132.388 92.2468 132.896 92.7137 133.563 93.0619L131.204 96.9554C131.125 97.0504 131.085 97.1611 131.085 97.2878C131.085 97.4144 131.133 97.5252 131.228 97.6201C131.324 97.7151 131.451 97.7626 131.609 97.7626H134.612ZM138.806 91.0201H136.78C136.272 91.0201 135.887 90.8935 135.625 90.6403C135.363 90.387 135.232 90.0388 135.232 89.5957C135.232 89.1209 135.363 88.7766 135.625 88.5629C135.887 88.3493 136.296 88.2424 136.852 88.2424H138.806V91.0201Z" fill="#202529"/>
</svg>
